#!OML:ASF H:\BreakDance\Project 1\Capture day 1\Session 1\Male.ASF
:FULLY-SPECIFIED
:DEGREES
2738
root -13.8579 13.6162 -3.9992 754.497 -74.9602 -6.26394
lowerback 18.7941 -4.24883 1.40174
upperback 8.62934 -5.65045 1.73852
thorax -1.14727 -2.97278 2.1344
lowerneck -5.0746 2.40542 -0.45735
upperneck -21.3144 2.47473 -0.559418
head -5.6131 0.926082 -0.145448
rclavicle 1.43125e-014 -3.18055e-015
rhumerus -10.946 12.8088 -84.0379
rradius 89.1718
rwrist -9.29525
rhand -30.4791 -16.0892
rfingers 7.12502
rthumb -3.78014 -46.0354
lclavicle 1.43125e-014 -3.18055e-015
lhumerus 65.1466 -43.2289 21.2923
lradius 38.1975
lwrist 3.45337
lhand -20.5242 -31.0554
lfingers 7.12502
lthumb 5.83371 -1.1557
rfemur -83.0676 -7.4519 5.56455
rtibia 69.5085
rfoot -19.407 7.96937
rtoes -44.1423
lfemur -60.4964 18.4555 -1.27523
ltibia 97.2343
lfoot -17.2793 1.08735
ltoes -41.6167
2739
root -13.8665 13.6412 -3.99625 753.444 -74.4086 -5.82346
lowerback 18.578 -4.52217 1.43825
upperback 8.41277 -5.97558 2.1144
thorax -1.22084 -3.13505 2.56391
lowerneck -5.08162 2.67174 -0.0608999
upperneck -20.8685 2.74878 -1.27949
head -5.45311 1.08839 -0.446137
rclavicle -8.5875e-014 3.02153e-014
rhumerus -11.4785 11.8464 -84.3972
rradius 87.385
rwrist -11.6306
rhand -31.0744 -16.759
rfingers 7.12502
rthumb -4.35498 -46.6942
lclavicle -8.5875e-014 3.02153e-014
lhumerus 66.9344 -44.5471 20.1578
lradius 37.986
lwrist 4.32682
lhand -19.1698 -30.6827
lfingers 7.12502
lthumb 7.1412 -0.823201
rfemur -82.0281 -7.87676 5.76126
rtibia 69.4715
rfoot -19.2394 8.27864
rtoes -42.9103
lfemur -57.7809 18.5479 -0.825028
ltibia 95.0336
lfoot -17.7166 1.80053
ltoes -42.8767
2740
root -13.8695 13.6617 -3.99226 752.195 -73.7966 -5.20672
lowerback 18.4057 -4.81954 1.49782
upperback 8.20705 -6.33012 2.41775
thorax -1.31023 -3.30961 2.91248
lowerneck -4.97411 2.92228 0.346854
upperneck -20.6455 3.02023 -1.84367
head -5.38132 1.23418 -0.700241
rclavicle -1.66979e-014 2.3059e-014
rhumerus -11.9783 10.8601 -84.7868
rradius 85.5498
rwrist -13.7318
rhand -31.5622 -17.4487
rfingers 7.12502
rthumb -4.82598 -47.3738
lclavicle -1.66979e-014 2.3059e-014
lhumerus 68.6123 -45.8936 19.1662
lradius 37.812
lwrist 4.78348
lhand -17.7524 -30.488
lfingers 7.12502
lthumb 8.50927 -0.679421
rfemur -81.1082 -8.43711 6.13675
rtibia 69.5328
rfoot -18.9294 8.18526
rtoes -42.1743
lfemur -55.2712 18.6627 -0.570156
ltibia 92.7476
lfoot -18.3369 2.40074
ltoes -44.1671
2741
root -13.8649 13.6763 -3.98761 750.892 -73.1117 -4.50783
lowerback 18.2212 -5.1393 1.59227
upperback 8.0354 -6.71305 2.66853
thorax -1.36218 -3.49711 3.18766
lowerneck -4.77012 3.13894 0.678358
upperneck -20.7181 3.26474 -2.20171
head -5.42143 1.35336 -0.879218
rclavicle 2.70347e-014 -3.81667e-014
rhumerus -12.4112 9.82436 -85.2022
rradius 83.7434
rwrist -15.4843
rhand -31.7537 -18.2411
rfingers 7.12502
rthumb -5.0109 -48.1619
lclavicle 2.70347e-014 -3.81667e-014
lhumerus 70.1472 -47.2049 18.3704
lradius 37.6987
lwrist 4.84251
lhand -16.3593 -30.5264
lfingers 7.12502
lthumb 9.85348 -0.776951
rfemur -80.2338 -9.09082 6.56525
rtibia 69.528
rfoot -18.7964 7.45884
rtoes -43.1464
lfemur -53.0422 18.8238 -0.472039
ltibia 90.4319
lfoot -19.1941 2.84939
ltoes -45.5481
2742
root -13.8526 13.6851 -3.98244 749.682 -72.3606 -3.86444
lowerback 18.0028 -5.46323 1.74099
upperback 7.92016 -7.10073 2.87903
thorax -1.34488 -3.68683 3.38293
lowerneck -4.54995 3.30747 0.91321
upperneck -21.0639 3.45895 -2.35701
head -5.55591 1.43464 -0.980102
rclavicle 4.05521e-014 2.38542e-015
rhumerus -12.7684 8.69429 -85.6482
rradius 82.0439
rwrist -16.8592
rhand -31.5493 -19.11
rfingers 7.12502
rthumb -4.8135 -49.0354
lclavicle 4.05521e-014 2.38542e-015
lhumerus 71.5396 -48.4458 17.7683
lradius 37.6824
lwrist 4.62309
lhand -15.0743 -30.8024
lfingers 7.12502
lthumb 11.0931 -1.11562
rfemur -79.3129 -9.77151 6.95606
rtibia 69.3518
rfoot -18.9852 5.96862
rtoes -46.2494
lfemur -51.0972 19.0593 -0.464516
ltibia 88.15
lfoot -20.3605 3.11224
ltoes -47.0741
2743
root -13.8347 13.6954 -3.97657 748.601 -71.5541 -3.31492
lowerback 17.7201 -5.76956 1.96062
upperback 7.84279 -7.46249 3.0605
thorax -1.26624 -3.8629 3.49248
lowerneck -4.19902 3.37407 1.06247
upperneck -21.6859 3.52812 -2.34097
head -5.80728 1.44322 -1.01435
rclavicle 9.54166e-015 3.65764e-014
rhumerus -13.1484 7.43285 -86.0965
rradius 80.5161
rwrist -17.8764
rhand -30.9265 -19.9562
rfingers 7.12502
rthumb -4.21214 -49.8943
lclavicle 9.54166e-015 3.65764e-014
lhumerus 72.7466 -49.7007 17.432
lradius 37.7938
lwrist 4.27903
lhand -13.9665 -31.29
lfingers 7.12502
lthumb 12.1614 -1.66349
rfemur -78.2476 -10.411 7.15894
rtibia 68.9726
rfoot -19.2743 4.26908
rtoes -49.6092
lfemur -49.3892 19.3489 -0.510446
ltibia 85.9472
lfoot -21.8477 3.18085
ltoes -48.5461
2744
root -13.8125 13.7127 -3.96927 747.563 -70.7022 -2.77363
lowerback 17.3888 -6.04186 2.24251
upperback 7.77209 -7.77582 3.21616
thorax -1.16914 -4.01304 3.52418
lowerneck -3.90412 3.34932 1.06233
upperneck -22.3118 3.49307 -2.17242
head -6.06058 1.39955 -0.970678
rclavicle -9.54166e-014 6.83819e-014
rhumerus -13.6357 6.02684 -86.4975
rradius 79.2095
rwrist -18.5713
rhand -29.9244 -20.6855
rfingers 7.12502
rthumb -3.24447 -50.6406
lclavicle -9.54166e-014 6.83819e-014
lhumerus 73.7369 -51.0593 17.3933
lradius 38.067
lwrist 4.00398
lhand -13.1377 -31.9286
lfingers 7.12502
lthumb 12.9605 -2.35112
rfemur -77.0263 -11.0076 7.15279
rtibia 68.3787
rfoot -19.5621 2.50251
rtoes -52.5072
lfemur -47.9036 19.6556 -0.620626
ltibia 83.8722
lfoot -23.526 3.07888
ltoes -49.7508
